<mxfile host="www.draw.io" modified="2019-10-26T18:58:01.937Z" agent="Mozilla/5.0 (Windows NT 10.0; Win64; x64) AppleWebKit/537.36 (KHTML, like Gecko) Chrome/77.0.3865.120 Safari/537.36" etag="7I4wPbpw3FmzOWIhusM2" version="12.1.7" type="github" pages="1">
  <diagram id="dvayOvmPAuLTwOydBaXN" name="Page-1">
    <mxGraphModel dx="1422" dy="794" grid="1" gridSize="10" guides="1" tooltips="1" connect="1" arrows="1" fold="1" page="1" pageScale="1" pageWidth="1100" pageHeight="850" math="0" shadow="0">
      <root>
        <mxCell id="0"/>
        <mxCell id="1" parent="0"/>
        <mxCell id="P94vjSVfHrpoifT2Vlh4-18" value="" style="rounded=0;whiteSpace=wrap;html=1;fillColor=#f5f5f5;strokeColor=#666666;fontColor=#333333;" parent="1" vertex="1">
          <mxGeometry x="820" y="70" width="270" height="210" as="geometry"/>
        </mxCell>
        <mxCell id="P94vjSVfHrpoifT2Vlh4-1" value="" style="rounded=0;whiteSpace=wrap;html=1;fillColor=#f5f5f5;strokeColor=#666666;fontColor=#333333;" parent="1" vertex="1">
          <mxGeometry x="200" y="70" width="570" height="480" as="geometry"/>
        </mxCell>
        <mxCell id="P94vjSVfHrpoifT2Vlh4-2" value="Base Station Computer" style="text;html=1;strokeColor=none;fillColor=none;align=center;verticalAlign=middle;whiteSpace=wrap;rounded=0;fontStyle=1;fontSize=15;" parent="1" vertex="1">
          <mxGeometry x="600" y="530" width="170" height="20" as="geometry"/>
        </mxCell>
        <mxCell id="P94vjSVfHrpoifT2Vlh4-5" style="edgeStyle=orthogonalEdgeStyle;rounded=0;orthogonalLoop=1;jettySize=auto;html=1;exitX=1;exitY=0.25;exitDx=0;exitDy=0;entryX=0.808;entryY=0.013;entryDx=0;entryDy=0;entryPerimeter=0;" parent="1" source="P94vjSVfHrpoifT2Vlh4-3" target="P94vjSVfHrpoifT2Vlh4-4" edge="1">
          <mxGeometry relative="1" as="geometry"/>
        </mxCell>
        <mxCell id="P94vjSVfHrpoifT2Vlh4-6" style="edgeStyle=orthogonalEdgeStyle;rounded=0;orthogonalLoop=1;jettySize=auto;html=1;exitX=1;exitY=0.5;exitDx=0;exitDy=0;" parent="1" source="P94vjSVfHrpoifT2Vlh4-3" target="P94vjSVfHrpoifT2Vlh4-4" edge="1">
          <mxGeometry relative="1" as="geometry"/>
        </mxCell>
        <mxCell id="P94vjSVfHrpoifT2Vlh4-7" style="edgeStyle=orthogonalEdgeStyle;rounded=0;orthogonalLoop=1;jettySize=auto;html=1;exitX=1;exitY=0.75;exitDx=0;exitDy=0;entryX=0.25;entryY=0;entryDx=0;entryDy=0;" parent="1" source="P94vjSVfHrpoifT2Vlh4-3" target="P94vjSVfHrpoifT2Vlh4-4" edge="1">
          <mxGeometry relative="1" as="geometry"/>
        </mxCell>
        <mxCell id="P94vjSVfHrpoifT2Vlh4-8" style="edgeStyle=orthogonalEdgeStyle;rounded=0;orthogonalLoop=1;jettySize=auto;html=1;exitX=0.75;exitY=1;exitDx=0;exitDy=0;entryX=0;entryY=0.25;entryDx=0;entryDy=0;" parent="1" source="P94vjSVfHrpoifT2Vlh4-3" target="P94vjSVfHrpoifT2Vlh4-4" edge="1">
          <mxGeometry relative="1" as="geometry"/>
        </mxCell>
        <mxCell id="P94vjSVfHrpoifT2Vlh4-9" style="edgeStyle=orthogonalEdgeStyle;rounded=0;orthogonalLoop=1;jettySize=auto;html=1;exitX=0.5;exitY=1;exitDx=0;exitDy=0;entryX=0;entryY=0.5;entryDx=0;entryDy=0;" parent="1" source="P94vjSVfHrpoifT2Vlh4-3" target="P94vjSVfHrpoifT2Vlh4-4" edge="1">
          <mxGeometry relative="1" as="geometry"/>
        </mxCell>
        <mxCell id="P94vjSVfHrpoifT2Vlh4-10" style="edgeStyle=orthogonalEdgeStyle;rounded=0;orthogonalLoop=1;jettySize=auto;html=1;exitX=0.25;exitY=1;exitDx=0;exitDy=0;entryX=0;entryY=0.75;entryDx=0;entryDy=0;" parent="1" source="P94vjSVfHrpoifT2Vlh4-3" target="P94vjSVfHrpoifT2Vlh4-4" edge="1">
          <mxGeometry relative="1" as="geometry"/>
        </mxCell>
        <mxCell id="P94vjSVfHrpoifT2Vlh4-3" value="ROV &amp;lt;-&amp;gt; Base station Comms Manager ROS Node" style="rounded=1;whiteSpace=wrap;html=1;fillColor=#D5E8D4;strokeColor=#d6b656;fontStyle=1" parent="1" vertex="1">
          <mxGeometry x="210" y="100" width="120" height="80" as="geometry"/>
        </mxCell>
        <mxCell id="P94vjSVfHrpoifT2Vlh4-24" style="edgeStyle=orthogonalEdgeStyle;rounded=0;orthogonalLoop=1;jettySize=auto;html=1;exitX=0.5;exitY=1;exitDx=0;exitDy=0;entryX=0.5;entryY=0;entryDx=0;entryDy=0;" parent="1" source="P94vjSVfHrpoifT2Vlh4-4" target="P94vjSVfHrpoifT2Vlh4-21" edge="1">
          <mxGeometry relative="1" as="geometry"/>
        </mxCell>
        <mxCell id="P94vjSVfHrpoifT2Vlh4-4" value="* HUD Image Generation Program" style="rounded=1;whiteSpace=wrap;html=1;fillColor=#D5E8D4;strokeColor=#d6b656;fontStyle=1" parent="1" vertex="1">
          <mxGeometry x="440" y="270" width="120" height="80" as="geometry"/>
        </mxCell>
        <mxCell id="P94vjSVfHrpoifT2Vlh4-11" value="&lt;b&gt;A&lt;/b&gt;" style="text;html=1;strokeColor=none;fillColor=none;align=center;verticalAlign=middle;whiteSpace=wrap;rounded=0;" parent="1" vertex="1">
          <mxGeometry x="530" y="120" width="40" height="20" as="geometry"/>
        </mxCell>
        <mxCell id="P94vjSVfHrpoifT2Vlh4-12" value="&lt;b&gt;B&lt;/b&gt;" style="text;html=1;strokeColor=none;fillColor=none;align=center;verticalAlign=middle;whiteSpace=wrap;rounded=0;" parent="1" vertex="1">
          <mxGeometry x="490" y="140" width="40" height="20" as="geometry"/>
        </mxCell>
        <mxCell id="P94vjSVfHrpoifT2Vlh4-13" value="&lt;b&gt;C&lt;/b&gt;" style="text;html=1;strokeColor=none;fillColor=none;align=center;verticalAlign=middle;whiteSpace=wrap;rounded=0;" parent="1" vertex="1">
          <mxGeometry x="460" y="160" width="40" height="20" as="geometry"/>
        </mxCell>
        <mxCell id="P94vjSVfHrpoifT2Vlh4-14" value="&lt;b&gt;F&lt;/b&gt;" style="text;html=1;strokeColor=none;fillColor=none;align=center;verticalAlign=middle;whiteSpace=wrap;rounded=0;" parent="1" vertex="1">
          <mxGeometry x="230" y="310" width="40" height="20" as="geometry"/>
        </mxCell>
        <mxCell id="P94vjSVfHrpoifT2Vlh4-15" value="&lt;b&gt;E&lt;/b&gt;" style="text;html=1;strokeColor=none;fillColor=none;align=center;verticalAlign=middle;whiteSpace=wrap;rounded=0;" parent="1" vertex="1">
          <mxGeometry x="260" y="290" width="40" height="20" as="geometry"/>
        </mxCell>
        <mxCell id="P94vjSVfHrpoifT2Vlh4-16" value="&lt;b&gt;D&lt;/b&gt;" style="text;html=1;strokeColor=none;fillColor=none;align=center;verticalAlign=middle;whiteSpace=wrap;rounded=0;" parent="1" vertex="1">
          <mxGeometry x="300" y="265" width="40" height="20" as="geometry"/>
        </mxCell>
        <mxCell id="P94vjSVfHrpoifT2Vlh4-17" value="&lt;b style=&quot;font-size: 15px&quot;&gt;Key&lt;/b&gt;" style="text;html=1;strokeColor=none;fillColor=none;align=center;verticalAlign=middle;whiteSpace=wrap;rounded=0;" parent="1" vertex="1">
          <mxGeometry x="935" y="80" width="40" height="20" as="geometry"/>
        </mxCell>
        <mxCell id="P94vjSVfHrpoifT2Vlh4-20" value="&lt;b&gt;Monitor&lt;/b&gt;" style="image;html=1;labelBackgroundColor=#ffffff;image=img/lib/clip_art/computers/Monitor_128x128.png" parent="1" vertex="1">
          <mxGeometry x="390" y="630" width="170" height="160" as="geometry"/>
        </mxCell>
        <mxCell id="P94vjSVfHrpoifT2Vlh4-27" style="edgeStyle=orthogonalEdgeStyle;rounded=0;orthogonalLoop=1;jettySize=auto;html=1;exitX=0.5;exitY=1;exitDx=0;exitDy=0;" parent="1" source="P94vjSVfHrpoifT2Vlh4-21" target="P94vjSVfHrpoifT2Vlh4-20" edge="1">
          <mxGeometry relative="1" as="geometry"/>
        </mxCell>
        <mxCell id="P94vjSVfHrpoifT2Vlh4-21" value="Systems Graphic Drivers" style="rounded=1;whiteSpace=wrap;html=1;fillColor=#D5E8D4;strokeColor=#d6b656;fontStyle=1" parent="1" vertex="1">
          <mxGeometry x="440" y="425" width="120" height="80" as="geometry"/>
        </mxCell>
        <mxCell id="P94vjSVfHrpoifT2Vlh4-25" value="OS Provided Driver-Application Communication&lt;br&gt;" style="text;html=1;strokeColor=none;fillColor=none;align=center;verticalAlign=middle;whiteSpace=wrap;rounded=0;fontStyle=1" parent="1" vertex="1">
          <mxGeometry x="500" y="378" width="170" height="20" as="geometry"/>
        </mxCell>
        <mxCell id="P94vjSVfHrpoifT2Vlh4-28" value="HDMI/VGA/DVI Connection" style="text;html=1;strokeColor=none;fillColor=none;align=center;verticalAlign=middle;whiteSpace=wrap;rounded=0;fontStyle=1" parent="1" vertex="1">
          <mxGeometry x="510" y="590" width="40" height="20" as="geometry"/>
        </mxCell>
        <mxCell id="mYEQ8QdQxq5M0N4z0mq4-1" value="&lt;b&gt;A =&amp;gt; Pressure Data (Float32 rostopic)&lt;/b&gt;" style="text;html=1;strokeColor=none;fillColor=none;align=center;verticalAlign=middle;whiteSpace=wrap;rounded=0;" parent="1" vertex="1">
          <mxGeometry x="825" y="100" width="230" height="20" as="geometry"/>
        </mxCell>
        <mxCell id="mYEQ8QdQxq5M0N4z0mq4-2" value="&lt;b&gt;B =&amp;gt; Depth Data (Float32 rostopic)&lt;/b&gt;" style="text;html=1;strokeColor=none;fillColor=none;align=center;verticalAlign=middle;whiteSpace=wrap;rounded=0;" parent="1" vertex="1">
          <mxGeometry x="820" y="130" width="220" height="20" as="geometry"/>
        </mxCell>
        <mxCell id="mYEQ8QdQxq5M0N4z0mq4-3" value="&lt;b&gt;C =&amp;gt; Pressure Data (Float32 rostopic)&lt;/b&gt;" style="text;html=1;strokeColor=none;fillColor=none;align=center;verticalAlign=middle;whiteSpace=wrap;rounded=0;" parent="1" vertex="1">
          <mxGeometry x="825" y="160" width="230" height="20" as="geometry"/>
        </mxCell>
        <mxCell id="mYEQ8QdQxq5M0N4z0mq4-4" value="&lt;b&gt;D =&amp;gt; Tempurature Data (Float32 rostopic)&lt;/b&gt;" style="text;html=1;strokeColor=none;fillColor=none;align=center;verticalAlign=middle;whiteSpace=wrap;rounded=0;" parent="1" vertex="1">
          <mxGeometry x="825" y="190" width="250" height="20" as="geometry"/>
        </mxCell>
        <mxCell id="mYEQ8QdQxq5M0N4z0mq4-5" value="&lt;b&gt;E =&amp;gt; Live Stream Images (image rostopic)&lt;/b&gt;" style="text;html=1;strokeColor=none;fillColor=none;align=center;verticalAlign=middle;whiteSpace=wrap;rounded=0;" parent="1" vertex="1">
          <mxGeometry x="818" y="220" width="270" height="20" as="geometry"/>
        </mxCell>
        <mxCell id="mYEQ8QdQxq5M0N4z0mq4-6" value="&lt;b&gt;F =&amp;gt; Current Heading Data (Twist rostopic)&lt;/b&gt;" style="text;html=1;strokeColor=none;fillColor=none;align=center;verticalAlign=middle;whiteSpace=wrap;rounded=0;" parent="1" vertex="1">
          <mxGeometry x="828" y="250" width="260" height="20" as="geometry"/>
        </mxCell>
        <mxCell id="mYEQ8QdQxq5M0N4z0mq4-8" value="&lt;b&gt;* Note:&lt;/b&gt; HUD Image Generation Program will overlay live pressure, depth, temperature, and heading data onto the live images before they are displayed." style="text;html=1;strokeColor=none;fillColor=none;align=center;verticalAlign=middle;whiteSpace=wrap;rounded=0;" parent="1" vertex="1">
          <mxGeometry x="820.5" y="307.5" width="275" height="70" as="geometry"/>
        </mxCell>
      </root>
    </mxGraphModel>
  </diagram>
</mxfile>
